<svg width="48" height="48" viewBox="0 0 48 48" fill="none" xmlns="http://www.w3.org/2000/svg">
<path d="M18 27.6794V13.2794L29.19 6.81943C35.39 3.23943 46.49 12.0694 41.83 20.1494" stroke="#0A0A0A" stroke-width="2.5" stroke-linejoin="round"/>
<path d="M18.3799 20.9402L30.8499 13.7402L42.0399 20.2002C48.2399 23.7802 46.1399 37.8102 36.8099 37.8102" stroke="#0A0A0A" stroke-width="2.5" stroke-linejoin="round"/>
<path d="M23.39 17L35.86 24.2V37.13C35.86 44.29 22.66 49.49 18 41.41" stroke="#0A0A0A" stroke-width="2.5" stroke-linejoin="round"/>
<path d="M30.5 21.1992V35.3392L19.31 41.7992C13.11 45.3792 2.00996 36.5492 6.66996 28.4692" stroke="#0A0A0A" stroke-width="2.5" stroke-linejoin="round"/>
<path d="M30.4998 27.9403L18.0298 35.1403L6.83979 28.6803C0.629792 25.0903 2.72979 11.0703 12.0598 11.0703" stroke="#0A0A0A" stroke-width="2.5" stroke-linejoin="round"/>
<path d="M24.4402 31.4408L11.9702 24.2408V11.3108C11.9702 4.15075 25.1702 -1.04925 29.8302 7.03075" stroke="#0A0A0A" stroke-width="2.5" stroke-linejoin="round"/>
</svg>
